<svg height='100px' width='100px'  fill="#530000" xmlns="http://www.w3.org/2000/svg" data-name="Layer 1" viewBox="0 0 60 60" x="0px" y="0px"><path d="M30.709,44a12.5,12.5,0,1,1,12.5-12.5A12.514,12.514,0,0,1,30.709,44Zm0-24a11.5,11.5,0,1,0,11.5,11.5A11.513,11.513,0,0,0,30.709,20Z"></path><path d="M39.994,38.888a11.512,11.512,0,0,0-18.569,0l-.8-.594a12.513,12.513,0,0,1,20.179,0Z"></path><path d="M30.709,34.182a4.864,4.864,0,1,1,4.864-4.864A4.869,4.869,0,0,1,30.709,34.182Zm0-8.728a3.864,3.864,0,1,0,3.864,3.864A3.868,3.868,0,0,0,30.709,25.454Z"></path><path d="M50.311,36a.494.494,0,0,1-.1-.01.5.5,0,0,1-.391-.59A19.518,19.518,0,0,0,30.709,12a.5.5,0,0,1,0-1,20.523,20.523,0,0,1,20.5,20.5,20.748,20.748,0,0,1-.409,4.1A.5.5,0,0,1,50.311,36Z"></path><path d="M30.709,52a20.429,20.429,0,0,1-13.94-5.47.5.5,0,1,1,.679-.732A19.506,19.506,0,0,0,47.6,41.252a.5.5,0,1,1,.865.5A20.577,20.577,0,0,1,30.709,52Z"></path><path d="M13.386,42a.5.5,0,0,1-.433-.25A20.511,20.511,0,0,1,24.56,11.939a.5.5,0,1,1,.3.954,19.514,19.514,0,0,0-11.04,28.359.5.5,0,0,1-.432.75Z"></path><path d="M33.709,15a.5.5,0,0,1-.354-.146l-3-3a.5.5,0,0,1,0-.708l3-3a.5.5,0,1,1,.707.708L31.416,11.5l2.646,2.646a.5.5,0,0,1-.353.854Z"></path><path d="M13.389,42a.519.519,0,0,1-.129-.017l-4.1-1.1a.5.5,0,0,1-.354-.613.508.508,0,0,1,.612-.354l3.615.969L14,37.272a.508.508,0,0,1,.613-.353.5.5,0,0,1,.354.613l-1.1,4.1A.5.5,0,0,1,13.389,42Z"></path><path d="M49.128,46.1a.5.5,0,0,1-.483-.371l-.968-3.615-3.616.969a.509.509,0,0,1-.613-.354.5.5,0,0,1,.355-.613l4.1-1.1a.507.507,0,0,1,.613.354l1.1,4.1a.5.5,0,0,1-.354.612A.519.519,0,0,1,49.128,46.1Z"></path></svg>